<svg xmlns="http://www.w3.org/2000/svg" version="1.1" xmlns:xlink="http://www.w3.org/1999/xlink" xmlns:svgjs="http://svgjs.dev/svgjs" width="1500" height="386" viewBox="0 0 1500 386"><g transform="matrix(1,0,0,1,-0.9090909090909918,-0.08821900864541021)"><svg viewBox="0 0 396 102" data-background-color="#ffffff" preserveAspectRatio="xMidYMid meet" height="386" width="1500" xmlns="http://www.w3.org/2000/svg" xmlns:xlink="http://www.w3.org/1999/xlink"><g id="tight-bounds" transform="matrix(1,0,0,1,0.2400000000000091,0.023311758761224155)"><svg viewBox="0 0 395.52 101.95337648247758" height="101.95337648247758" width="395.52"><g><svg viewBox="0 0 586.7056063095315 151.23538016903302" height="101.95337648247758" width="395.52"><g><rect width="6.4067952920530855" height="145.90967695999325" x="412.29171542422273" y="2.6628516045198865" fill="#375a82" opacity="1" stroke-width="0" stroke="transparent" fill-opacity="1" class="rect-qz-0" data-fill-palette-color="primary" rx="1%" id="qz-0" data-palette-color="#375a82"></rect></g><g transform="matrix(1,0,0,1,0,14.821991351185993)"><svg viewBox="0 0 395.52 121.59139746666104" height="121.59139746666104" width="395.52"><g id="textblocktransform"><svg viewBox="0 0 395.52 121.59139746666104" height="121.59139746666104" width="395.52" id="textblock"><g><svg viewBox="0 0 395.52 71.04371229698376" height="71.04371229698376" width="395.52"><g transform="matrix(1,0,0,1,0,0)"><svg width="395.52" viewBox="-1.3 -36.95 258.58 46.45" height="71.04371229698376" data-palette-color="#375a82"><path d="M28.35-33.3Q31.75-33.3 34.27-32.27 36.8-31.25 38.13-29.48 39.45-27.7 39.45-25.4L39.45-25.4Q39.45-24.1 39.1-23L39.1-23Q37.65-17.95 30.75-16.6L30.75-16.6Q33.15-15.9 34.55-14.28 35.95-12.65 35.95-10.25L35.95-10.25Q35.95-9.15 35.55-7.65L35.55-7.65Q34.45-3.75 31.13-1.88 27.8 0 21.7 0L21.7 0 0.9 0Q-0.15 0-0.73-0.35-1.3-0.7-1.3-1.3L-1.3-1.3Q-1.3-1.6-1.15-1.95L-1.15-1.95Q-0.95-2.5-0.5-2.8-0.05-3.1 0.05-3.15L0.05-3.15Q0.85-3.65 1.35-4.17 1.85-4.7 2.2-5.9L2.2-5.9 8.3-27.45Q8.5-28.1 8.5-28.7L8.5-28.7Q8.5-29.25 8.33-29.63 8.15-30 7.85-30.5L7.85-30.5Q7.4-31.15 7.4-31.55L7.4-31.55Q7.4-31.7 7.5-32.1L7.5-32.1Q7.7-32.75 8.38-33.02 9.05-33.3 10.45-33.3L10.45-33.3 28.35-33.3ZM26.1-24.15Q26.45-25.25 26.45-26.2L26.45-26.2Q26.45-28.8 23.5-28.8L23.5-28.8 21.25-28.8 18.6-19.45 20.8-19.45Q22.9-19.45 24.13-20.48 25.35-21.5 26.1-24.15L26.1-24.15ZM22.45-9.45Q22.8-10.65 22.8-11.65L22.8-11.65Q22.8-14.35 19.7-14.35L19.7-14.35 17.2-14.35 14.35-4.5 16.9-4.5Q19.05-4.5 20.35-5.58 21.65-6.65 22.45-9.45L22.45-9.45ZM61-33.3Q68.5-33.3 72.3-30.43 76.1-27.55 76.1-22L76.1-22Q76.1-19.25 75.1-15.65L75.1-15.65Q73.45-9.85 70.65-6.45 67.85-3.05 63.27-1.5 58.7 0.05 51.55 0L51.55 0 37.95-0.05Q36.9-0.05 36.32-0.4 35.75-0.75 35.75-1.35L35.75-1.35Q35.75-1.65 35.9-2L35.9-2Q36.05-2.45 36.32-2.65 36.6-2.85 37.15-3.2L37.15-3.2Q37.95-3.65 38.42-4.2 38.9-4.75 39.25-5.95L39.25-5.95 45.35-27.45Q45.55-28.1 45.55-28.7L45.55-28.7Q45.55-29.25 45.37-29.63 45.2-30 44.9-30.5L44.9-30.5Q44.45-31.15 44.45-31.55L44.45-31.55Q44.45-31.7 44.55-32.1L44.55-32.1Q44.75-32.75 45.42-33.02 46.1-33.3 47.5-33.3L47.5-33.3 61-33.3ZM62.3-16.75Q63.6-21.45 63.6-24.15L63.6-24.15Q63.6-26.8 62.5-27.8 61.4-28.8 59.35-28.8L59.35-28.8 58.25-28.8 51.5-4.5 52.7-4.5Q55-4.5 56.57-5.48 58.15-6.45 59.5-9.08 60.85-11.7 62.3-16.75L62.3-16.75ZM95.4-33.3Q100.4-33.3 104.07-31.88 107.75-30.45 109.67-28.15 111.6-25.85 111.6-23.25L111.6-23.25Q111.6-22.3 111.3-21.3L111.3-21.3Q110.6-19.2 108.95-18 107.3-16.8 103.9-15.83 100.5-14.85 93.45-13.5L93.45-13.5Q89.2-12.7 87.07-12.08 84.95-11.45 84.12-10.75 83.3-10.05 83.2-8.95L83.2-8.95 97.6-8.95Q100.6-8.95 102.15-9.75 103.7-10.55 105.05-11.9L105.05-11.9Q105.65-12.55 106.02-12.83 106.4-13.1 106.9-13.1L106.9-13.1Q107.8-13.1 108.55-11.88 109.3-10.65 109.3-8.75L109.3-8.75Q109.3-7.5 108.85-5.9L108.85-5.9Q107.85-2.7 105.25-1.35 102.65 0 97.4 0L97.4 0 79.75 0Q78.15 0 77.17-1.35 76.2-2.7 76.2-5L76.2-5Q76.2-6.7 76.8-8.7L76.8-8.7Q77.85-12.15 80.65-14.28 83.45-16.4 88.55-17.85L88.55-17.85Q91.95-18.85 93.8-19.83 95.65-20.8 96.45-21.78 97.25-22.75 97.7-24.2L97.7-24.2Q97.95-25.2 97.95-25.85L97.95-25.85Q97.95-27.25 97.1-28.1 96.25-28.95 94.8-28.95L94.8-28.95Q94.4-28.95 93.4-28.75L93.4-28.75Q93.45-28.45 93.45-27.85L93.45-27.85Q93.45-24.45 91.4-22.75 89.35-21.05 86.25-21.05L86.25-21.05Q83.95-21.05 82.6-22.25 81.25-23.45 81.25-25.5L81.25-25.5Q81.25-26.5 81.5-27.3L81.5-27.3Q82.4-30.25 86.05-31.78 89.7-33.3 95.4-33.3L95.4-33.3ZM139.84-33.6Q142.64-33.6 145.02-32.93 147.39-32.25 149.84-30.8L149.84-30.8 150.99-31.75Q152.19-32.7 152.97-33.05 153.74-33.4 154.74-33.4L154.74-33.4Q155.94-33.4 156.64-32.88 157.34-32.35 157.34-31.35L157.34-31.35Q157.34-30.95 157.19-30.5L157.19-30.5 155.09-23.6Q154.74-22.4 154.22-21.9 153.69-21.4 152.64-21.4L152.64-21.4Q151.54-21.4 150.72-22.08 149.89-22.75 148.14-24.85L148.14-24.85Q146.39-26.85 144.97-27.68 143.54-28.5 142.04-28.5L142.04-28.5Q140.94-28.5 140.19-27.78 139.44-27.05 139.44-26L139.44-26Q139.44-24.8 140.64-23.78 141.84-22.75 144.39-21.2L144.39-21.2Q146.99-19.65 148.69-18.4 150.39-17.15 151.59-15.3 152.79-13.45 152.79-11.05L152.79-11.05Q152.79-9.5 152.29-7.95L152.29-7.95Q151.09-3.95 147.64-1.88 144.19 0.2 139.59 0.2L139.59 0.2Q136.14 0.2 133.79-0.6 131.44-1.4 128.99-3.3L128.99-3.3 127.19-1.8Q125.94-0.75 125.14-0.38 124.34 0 123.34 0L123.34 0Q122.19 0 121.52-0.55 120.84-1.1 120.84-2.05L120.84-2.05Q120.84-2.55 121.04-3.1L121.04-3.1 123.49-10.55Q123.89-11.85 124.59-12.4 125.29-12.95 126.39-12.95L126.39-12.95Q127.54-12.95 128.47-12.15 129.39-11.35 130.89-9.25L130.89-9.25Q132.49-6.95 133.87-6.05 135.24-5.15 137.14-5.15L137.14-5.15Q138.49-5.15 139.22-5.58 139.94-6 140.24-6.95L140.24-6.95Q140.34-7.2 140.34-7.7L140.34-7.7Q140.34-8.9 139.19-9.9 138.04-10.9 135.64-12.3L135.64-12.3Q133.09-13.85 131.49-15.08 129.89-16.3 128.72-18.15 127.54-20 127.54-22.5L127.54-22.5Q127.54-24.25 128.09-25.95L128.09-25.95Q129.14-29.4 132.39-31.5 135.64-33.6 139.84-33.6L139.84-33.6ZM189.29-16.75L186.24-6.9Q186.14-6.7 186.14-6.3L186.14-6.3Q186.14-5.95 186.31-5.75 186.49-5.55 186.79-5.55L186.79-5.55Q187.39-5.55 187.81-6.08 188.24-6.6 188.39-6.6L188.39-6.6Q188.64-6.6 188.79-6.28 188.94-5.95 188.94-5.5L188.94-5.5Q188.99-4.05 187.99-2.68 186.99-1.3 185.06-0.43 183.14 0.45 180.44 0.45L180.44 0.45Q177.14 0.45 175.19-1.07 173.24-2.6 173.19-5.15L173.19-5.15Q173.19-7 174.09-9.3L174.09-9.3 176.84-16.5Q177.09-17.15 177.09-17.55L177.09-17.55Q177.09-18.2 176.66-18.57 176.24-18.95 175.64-18.95L175.64-18.95Q174.69-18.95 173.71-18.07 172.74-17.2 172.14-15.25L172.14-15.25 172.14-15.35 168.99-5.2Q168.84-4.6 168.84-4.15L168.84-4.15Q168.84-3.5 169.09-3.13 169.34-2.75 169.79-2.4L169.79-2.4Q170.14-2.05 170.29-1.83 170.44-1.6 170.34-1.25L170.34-1.25Q170.09-0.6 169.34-0.3 168.59 0 167.04 0L167.04 0 155.64 0Q154.34 0 153.74-0.43 153.14-0.85 153.34-1.55L153.34-1.55Q153.54-2.15 154.39-2.6L154.39-2.6Q155.14-3 155.64-3.55 156.14-4.1 156.49-5.3L156.49-5.3 164.09-30.25Q164.24-30.7 164.24-31L164.24-31Q164.24-31.55 163.96-31.9 163.69-32.25 163.24-32.6L163.24-32.6Q162.74-33 162.51-33.3 162.29-33.6 162.44-34.1L162.44-34.1Q162.74-35.25 165.59-36.1 168.44-36.95 171.54-36.95L171.54-36.95Q174.44-36.95 175.81-35.85 177.19-34.75 177.19-32.85L177.19-32.85Q177.19-31.75 176.84-30.7L176.84-30.7 174.14-21.9Q176.09-24.45 178.26-25.45 180.44-26.45 182.99-26.45L182.99-26.45Q186.04-26.45 187.91-24.6 189.79-22.75 189.79-19.8L189.79-19.8Q189.79-18.25 189.29-16.75L189.29-16.75ZM210.44-26.45Q217.24-26.45 220.46-23.7 223.69-20.95 223.69-16.5L223.69-16.5Q223.69-15 223.29-13.15L223.29-13.15Q222.34-9.05 219.74-5.98 217.14-2.9 213.36-1.23 209.59 0.45 205.19 0.45L205.19 0.45Q198.24 0.45 194.91-2.33 191.59-5.1 191.59-9.7L191.59-9.7Q191.59-11.25 191.99-13.15L191.99-13.15Q192.94-17.05 195.61-20.08 198.29-23.1 202.16-24.78 206.04-26.45 210.44-26.45L210.44-26.45ZM210.29-22Q209.24-22 208.06-20.13 206.89-18.25 205.29-13.05L205.29-13.05Q203.69-7.85 203.69-5.75L203.69-5.75Q203.69-4.65 204.04-4.28 204.39-3.9 204.99-3.9L204.99-3.9Q206.04-3.8 207.16-5.7 208.29-7.6 209.99-13.1L209.99-13.1Q211.54-17.95 211.54-20.15L211.54-20.15Q211.54-21.2 211.21-21.6 210.89-22 210.29-22L210.29-22ZM249.03-26.65Q252.88-26.65 255.08-24.1 257.28-21.55 257.28-17.15L257.28-17.15Q257.28-14.8 256.63-12.2L256.63-12.2Q255.13-6 251.03-2.78 246.93 0.45 241.53 0.45L241.53 0.45Q238.08 0.45 235.53-1L235.53-1 233.93 4.35Q233.73 4.9 233.73 5.4L233.73 5.4Q233.73 5.95 233.98 6.33 234.23 6.7 234.63 7.05L234.63 7.05Q235.03 7.45 235.16 7.7 235.28 7.95 235.18 8.3L235.18 8.3Q234.98 8.95 234.23 9.22 233.48 9.5 231.93 9.5L231.93 9.5 220.48 9.5Q219.18 9.5 218.61 9.08 218.03 8.65 218.28 8L218.28 8Q218.38 7.6 218.63 7.35 218.88 7.1 219.33 6.9L219.33 6.9Q220.08 6.4 220.53 5.88 220.98 5.35 221.33 4.2L221.33 4.2 228.63-19.75Q228.78-20.2 228.78-20.5L228.78-20.5Q228.78-21.05 228.53-21.38 228.28-21.7 227.78-22.05L227.78-22.05Q227.28-22.45 227.08-22.75 226.88-23.05 227.03-23.55L227.03-23.55Q227.33-24.7 230.18-25.58 233.03-26.45 236.13-26.45L236.13-26.45Q238.33-26.45 239.76-25.35 241.18-24.25 241.38-22.3L241.38-22.3Q244.78-26.65 249.03-26.65L249.03-26.65ZM243.23-11.8Q244.43-16.25 244.43-17.95L244.43-17.95Q244.43-19 244.11-19.33 243.78-19.65 243.18-19.65L243.18-19.65Q242.73-19.65 242.03-19.23 241.33-18.8 240.63-17.8L240.63-17.8 236.68-4.7Q237.28-4.1 238.13-4.1L238.13-4.1Q239.48-4.1 240.71-5.63 241.93-7.15 243.23-11.8L243.23-11.8Z" opacity="1" transform="matrix(1,0,0,1,0,0)" fill="#375a82" class="wordmark-text-0" data-fill-palette-color="primary" id="text-0"></path></svg></g></svg></g><g transform="matrix(1,0,0,1,163.310208,87.81542772120649)"><svg viewBox="0 0 232.209792 33.775969745454546" height="33.775969745454546" width="232.209792"><g transform="matrix(1,0,0,1,0,0)"><svg width="232.209792" viewBox="0 -50 343.74 50" height="33.775969745454546" data-palette-color="#375a82"><path d="M37.5-6.25L6.25-6.25 6.25-12.5 0-12.5 0-18.75 12.5-18.75 12.5-12.5 31.25-12.5 31.25-25 6.25-25 6.25-31.25 0-31.25 0-43.75 6.25-43.75 6.25-50 37.5-50 37.5-43.75 43.75-43.75 43.75-37.5 31.25-37.5 31.25-43.75 12.5-43.75 12.5-31.25 37.5-31.25 37.5-25 43.75-25 43.75-12.5 37.5-12.5 37.5-6.25ZM87.5 0L56.25 0 56.25-6.25 81.25-6.25 81.25-12.5 56.25-12.5 56.25-18.75 50-18.75 50-37.5 62.5-37.5 62.5-18.75 81.25-18.75 81.25-37.5 93.75-37.5 93.75-6.25 87.5-6.25 87.5 0ZM137.5-6.25L100-6.25 100-12.5 131.25-12.5 131.25-18.75 106.25-18.75 106.25-25 100-25 100-31.25 106.25-31.25 106.25-37.5 137.5-37.5 137.5-31.25 112.5-31.25 112.5-25 137.5-25 137.5-18.75 143.75-18.75 143.75-12.5 137.5-12.5 137.5-6.25ZM181.24-6.25L168.74-6.25 168.74-31.25 156.24-31.25 156.24-37.5 168.74-37.5 168.74-50 181.24-50 181.24-37.5 193.74-37.5 193.74-31.25 181.24-31.25 181.24-6.25ZM237.49-6.25L206.24-6.25 206.24-12.5 199.99-12.5 199.99-31.25 206.24-31.25 206.24-37.5 237.49-37.5 237.49-31.25 243.74-31.25 243.74-18.75 212.49-18.75 212.49-12.5 237.49-12.5 237.49-6.25ZM212.49-31.25L212.49-25 231.24-25 231.24-31.25 212.49-31.25ZM256.24-6.25L249.99-6.25 249.99-37.5 287.49-37.5 287.49-31.25 293.74-31.25 293.74-6.25 281.24-6.25 281.24-31.25 274.99-31.25 274.99-6.25 262.49-6.25 262.49-31.25 256.24-31.25 256.24-6.25ZM337.49-6.25L299.99-6.25 299.99-12.5 331.24-12.5 331.24-18.75 306.24-18.75 306.24-25 299.99-25 299.99-31.25 306.24-31.25 306.24-37.5 337.49-37.5 337.49-31.25 312.49-31.25 312.49-25 337.49-25 337.49-18.75 343.74-18.75 343.74-12.5 337.49-12.5 337.49-6.25Z" opacity="1" transform="matrix(1,0,0,1,0,0)" fill="#375a82" class="slogan-text-1" data-fill-palette-color="secondary" id="text-1"></path></svg></g></svg></g></svg></g></svg></g><g transform="matrix(1,0,0,1,435.47022614049854,0)"><svg viewBox="0 0 151.23538016903302 151.23538016903302" height="151.23538016903302" width="151.23538016903302"><g><svg xmlns="http://www.w3.org/2000/svg" xmlns:xlink="http://www.w3.org/1999/xlink" version="1.1" x="0" y="0" viewBox="2.6999999999999993 2.8000000000000007 94.5 94.5" enable-background="new 0 0 100 100" xml:space="preserve" height="151.23538016903302" width="151.23538016903302" class="icon-icon-0" data-fill-palette-color="accent" id="icon-0"><path d="M28.3 87.1l4.9-3.5c1.7 0.9 3.6 1.6 5.5 2.2l1 6c0.6 3.2 3.3 5.5 6.5 5.5 0 0 0 0 0.1 0l8.2-0.1c3.2 0 6-2.4 6.5-5.6l1-6c1.8-0.6 3.5-1.3 5.2-2.2l5 3.5c2.7 1.9 6.2 1.5 8.5-0.8l5.7-5.8c2.3-2.3 2.5-5.9 0.6-8.5L83.5 67c0.9-1.8 1.7-3.6 2.2-5.4l6-1.1c3.2-0.6 5.5-3.3 5.5-6.6l-0.1-8.2c0-3.2-2.4-6-5.6-6.5l-5.9-0.9c-0.6-1.9-1.4-3.7-2.3-5.4l3.5-5c1.8-2.7 1.5-6.2-0.8-8.5l-5.8-5.7c-2.3-2.3-5.9-2.5-8.5-0.7L48.4 29.6c-5 0.4-9.7 2.6-13.2 6.3-3.8 4-5.8 9.1-5.7 14.6 0.3 11.1 9.4 20 20.4 20 0.2 0 0.3 0 0.5 0 11.3-0.3 20.2-9.6 20-20.9-0.1-2.3-0.5-4.5-1.2-6.6-0.7-1.8-2.7-2.7-4.5-2.1-1.8 0.7-2.7 2.7-2.1 4.5 0.5 1.4 0.8 2.8 0.8 4.3 0.2 7.4-5.7 13.6-13.1 13.8-7.5 0.1-13.6-5.7-13.8-13.1-0.1-3.6 1.2-7 3.7-9.6 2.5-2.6 5.8-4.1 9.4-4.2 0.7 0 1.4-0.2 1.9-0.6l24.1-17.1 5.3 5.2-3.4 4.8C76.2 31 76 33.7 77.2 36c0.7 1.5 1.4 3 1.9 4.5 0.8 2.5 2.9 4.3 5.4 4.7l5.7 0.9 0.1 7.5-5.8 1c-2.5 0.4-4.5 2.2-5.3 4.7-0.5 1.5-1.1 3-1.9 4.5-1.2 2.3-1 5.1 0.5 7.2l3.4 4.6L75.9 81l-4.8-3.4C69 76.1 66.3 76 64 77.2c-1.4 0.7-2.8 1.3-4.3 1.8-2.5 0.8-4.2 2.9-4.7 5.4l-0.9 5.7-7.5 0.1-1-5.7c-0.4-2.5-2.3-4.6-4.7-5.4-1.6-0.5-3.1-1.1-4.5-1.8-2.3-1.2-5-1-7.1 0.5l-4.7 3.4L19.1 76l3.3-4.8c1.5-2.1 1.6-4.8 0.4-7.1-0.7-1.4-1.4-2.9-1.9-4.5-0.8-2.5-2.9-4.2-5.4-4.6L9.8 54l-0.1-7.5 5.8-1c2.5-0.4 4.6-2.3 5.4-4.7 0.5-1.6 1.1-3.1 1.8-4.5 1.2-2.3 1-5-0.5-7.1l-3.4-4.7 5.2-5.3 4.8 3.3c2.1 1.5 4.9 1.6 7.2 0.4 1.5-0.8 3-1.4 4.6-1.9 2.5-0.8 4.3-2.9 4.7-5.5l0.9-5.6L54 9.8c1.9 0 3.5-1.6 3.5-3.5 0-1.9-1.6-3.5-3.5-3.5 0 0 0 0 0 0l-8.2 0.1c-3.2 0-6 2.4-6.5 5.6l-0.9 5.9c-2 0.6-3.9 1.4-5.7 2.4l-5-3.5c-2.7-1.8-6.2-1.5-8.5 0.8l-5.7 5.8c-2.3 2.3-2.5 5.9-0.6 8.5l3.5 4.9c-0.9 1.7-1.6 3.6-2.2 5.5l-6 1c-3.1 0.6-5.4 3.2-5.5 6.3 0 0.1 0 0.1 0 0.2l0.1 8.2c0 3.2 2.4 6 5.6 6.5l6 1c0.6 1.9 1.4 3.7 2.3 5.4l-3.5 5c-1.8 2.7-1.5 6.2 0.8 8.5l5.8 5.7C22.1 88.7 25.6 89 28.3 87.1z" fill="#4c6fa5" data-fill-palette-color="accent"></path></svg></g></svg></g></svg></g><defs></defs></svg><rect width="395.52" height="101.95337648247758" fill="none" stroke="none" visibility="hidden"></rect></g></svg></g></svg>